<svg width="75" height="50" viewBox="0 0 75 50" fill="none" xmlns="http://www.w3.org/2000/svg">
<rect x="0.5" y="0.5" width="74" height="49" rx="9.5" stroke="white"/>
<circle cx="7.70152" cy="7.70152" r="7.20152" transform="matrix(-1 0 0 1 21.4033 5)" stroke="white"/>
<circle cx="1.14524" cy="1.14524" r="0.645244" transform="matrix(-1 0 0 1 18.8242 9.5)" fill="white" stroke="white"/>
<circle cx="1.14524" cy="1.14524" r="0.645244" transform="matrix(-1 0 0 1 14.8242 9.5)" fill="white" stroke="white"/>
<path d="M18.5337 14.5C17.1895 17.5 13.5339 18.5 12.5337 14.5" stroke="white" stroke-linecap="round"/>
<path d="M12.5381 20.5801L12.5381 20.0801L13.5381 20.0801L13.5381 20.5801L12.5381 20.5801ZM13.5381 20.5801L13.5381 36.4539L12.5381 36.4539L12.5381 20.5801L13.5381 20.5801Z" fill="white"/>
<line x1="0.5" y1="-0.5" x2="10.4306" y2="-0.5" transform="matrix(0.556447 0.830883 0.830991 -0.556286 13.1172 35.6641)" stroke="white" stroke-linecap="round"/>
<line x1="0.5" y1="-0.5" x2="10.885" y2="-0.5" transform="matrix(0.8742 -0.485566 -0.48572 -0.874114 12.8013 24.5283)" stroke="white" stroke-linecap="round"/>
<path d="M12.5337 14.5003L18.5337 14.5" stroke="white" stroke-linecap="round"/>
<line x1="0.5" y1="-0.5" x2="9.7976" y2="-0.5" transform="matrix(0.536958 -0.843609 -0.843711 -0.536798 7.11377 44.7461)" stroke="white" stroke-linecap="round"/>
<line x1="21.827" y1="33.024" x2="12.9829" y2="24.7615" stroke="white" stroke-linecap="round"/>
<path d="M27.3873 33V18.4545H30.4625V30.4645H36.6983V33H27.3873ZM46.6255 22.6378C46.5687 22.0649 46.3249 21.6198 45.894 21.3026C45.4631 20.9853 44.8784 20.8267 44.1397 20.8267C43.6378 20.8267 43.2141 20.8977 42.8684 21.0398C42.5228 21.1771 42.2576 21.3688 42.073 21.6151C41.8931 21.8613 41.8031 22.1406 41.8031 22.4531C41.7936 22.7135 41.8481 22.9408 41.9664 23.1349C42.0895 23.3291 42.2576 23.4972 42.4707 23.6392C42.6838 23.7765 42.93 23.8973 43.2093 24.0014C43.4887 24.1009 43.787 24.1861 44.1042 24.2571L45.411 24.5696C46.0455 24.7116 46.6279 24.901 47.1582 25.1378C47.6885 25.3745 48.1478 25.6657 48.536 26.0114C48.9243 26.357 49.225 26.7642 49.438 27.233C49.6558 27.7017 49.7671 28.2391 49.7718 28.8452C49.7671 29.7353 49.5398 30.5071 49.09 31.1605C48.6449 31.8092 48.001 32.3134 47.1582 32.6733C46.3201 33.0284 45.3092 33.206 44.1255 33.206C42.9513 33.206 41.9286 33.026 41.0574 32.6662C40.1909 32.3063 39.5138 31.7737 39.0261 31.0682C38.5431 30.358 38.2898 29.4796 38.2662 28.4332H41.242C41.2752 28.9209 41.4148 29.3281 41.661 29.6548C41.912 29.9768 42.2458 30.2206 42.6625 30.3864C43.0839 30.5473 43.5597 30.6278 44.09 30.6278C44.6109 30.6278 45.063 30.5521 45.4466 30.4006C45.8348 30.2491 46.1355 30.0384 46.3485 29.7685C46.5616 29.4986 46.6681 29.1884 46.6681 28.8381C46.6681 28.5114 46.5711 28.2367 46.377 28.0142C46.1876 27.7917 45.9082 27.6023 45.5389 27.446C45.1743 27.2898 44.7269 27.1477 44.1966 27.0199L42.6127 26.6222C41.3864 26.3239 40.4181 25.8575 39.7079 25.223C38.9977 24.5885 38.6449 23.7339 38.6497 22.6591C38.6449 21.7784 38.8793 21.009 39.3528 20.3509C39.831 19.6927 40.4868 19.179 41.3201 18.8097C42.1535 18.4403 43.1004 18.2557 44.161 18.2557C45.2406 18.2557 46.1828 18.4403 46.9877 18.8097C47.7974 19.179 48.4271 19.6927 48.877 20.3509C49.3268 21.009 49.5588 21.7713 49.573 22.6378H46.6255ZM51.8404 18.4545H55.633L59.6387 28.2273H59.8091L63.8148 18.4545H67.6074V33H64.6245V23.5327H64.5037L60.7395 32.929H58.7083L54.9441 23.4972H54.8233V33H51.8404V18.4545Z" fill="white"/>
</svg>
