<svg width="35" height="41" viewBox="0 0 35 41" fill="none" xmlns="http://www.w3.org/2000/svg">
<circle cx="27.103" cy="7.89741" r="7.50254" stroke="white" stroke-width="0.789741"/>
<circle cx="23.5885" cy="5.64708" r="0.750254" fill="white" stroke="white" stroke-width="0.789741"/>
<circle cx="28.485" cy="5.64708" r="0.750254" fill="white" stroke="white" stroke-width="0.789741"/>
<path d="M23.5493 10.1084C25 12 26.5 12 27.8929 10.1084" stroke="white" stroke-width="0.789741" stroke-linecap="round"/>
<line x1="27.4979" y1="15.7949" x2="27.4979" y2="31.6687" stroke="white" stroke-width="0.789741"/>
<line x1="27.5274" y1="31.4267" x2="21.8857" y2="39.8525" stroke="white" stroke-width="0.789741" stroke-linecap="round"/>
<line x1="27.1979" y1="19.8966" x2="17.9375" y2="14.7519" stroke="white" stroke-width="0.789741" stroke-linecap="round"/>
<line x1="32.8758" y1="39.8398" x2="27.7715" y2="31.8189" stroke="white" stroke-width="0.789741" stroke-linecap="round"/>
<line x1="34.4451" y1="28.3725" x2="27.5187" y2="19.8251" stroke="white" stroke-width="0.789741" stroke-linecap="round"/>
<mask id="path-10-inside-1_76_149" fill="white">
<path fill-rule="evenodd" clip-rule="evenodd" d="M1.04228 2.01019C0.305761 1.90025 -0.229814 2.70113 0.111768 3.40164L4.87771 13.1756C5.25489 13.9491 6.32205 13.8797 6.57511 13.0652L7.51508 10.0398C7.56528 10.0834 7.61823 10.1245 7.67388 10.1629L13.6795 14.3062C14.4873 14.8635 15.5576 14.6368 16.0701 13.7999C16.5827 12.963 16.3433 11.8328 15.5355 11.2755L9.52988 7.13221C9.52304 7.12749 9.51618 7.12283 9.5093 7.11822L11.8153 5.29355C12.4686 4.77661 12.1815 3.67287 11.362 3.55054L1.04228 2.01019Z"/>
</mask>
<path fill-rule="evenodd" clip-rule="evenodd" d="M1.04228 2.01019C0.305761 1.90025 -0.229814 2.70113 0.111768 3.40164L4.87771 13.1756C5.25489 13.9491 6.32205 13.8797 6.57511 13.0652L7.51508 10.0398C7.56528 10.0834 7.61823 10.1245 7.67388 10.1629L13.6795 14.3062C14.4873 14.8635 15.5576 14.6368 16.0701 13.7999C16.5827 12.963 16.3433 11.8328 15.5355 11.2755L9.52988 7.13221C9.52304 7.12749 9.51618 7.12283 9.5093 7.11822L11.8153 5.29355C12.4686 4.77661 12.1815 3.67287 11.362 3.55054L1.04228 2.01019Z" fill="url(#paint0_linear_76_149)"/>
<path d="M0.111768 3.40164L-0.527094 3.71316L-0.527094 3.71316L0.111768 3.40164ZM1.04228 2.01019L1.14721 1.30721L1.04228 2.01019ZM4.87771 13.1756L5.51657 12.8641L5.51657 12.8641L4.87771 13.1756ZM6.57511 13.0652L7.25387 13.2761L7.25387 13.2761L6.57511 13.0652ZM7.51508 10.0398L7.98087 9.50296L7.15911 8.79001L6.83632 9.82895L7.51508 10.0398ZM7.67388 10.1629L8.0775 9.57784L8.0775 9.57784L7.67388 10.1629ZM13.6795 14.3062L13.2759 14.8912L13.2759 14.8912L13.6795 14.3062ZM16.0701 13.7999L15.464 13.4287L15.464 13.4287L16.0701 13.7999ZM15.5355 11.2755L15.1319 11.8606L15.1319 11.8606L15.5355 11.2755ZM9.52988 7.13221L9.93351 6.54717L9.9335 6.54717L9.52988 7.13221ZM9.5093 7.11822L9.06826 6.56084L8.30349 7.16598L9.11372 7.70873L9.5093 7.11822ZM11.8153 5.29355L11.3742 4.73617L11.3742 4.73617L11.8153 5.29355ZM11.362 3.55054L11.2571 4.25352L11.2571 4.25352L11.362 3.55054ZM0.75063 3.09012C0.69617 2.97843 0.713785 2.87154 0.763565 2.7971C0.811279 2.72575 0.870526 2.70319 0.937352 2.71317L1.14721 1.30721C-0.241131 1.09998 -1.08049 2.57826 -0.527094 3.71316L0.75063 3.09012ZM5.51657 12.8641L0.75063 3.09012L-0.527094 3.71316L4.23885 13.4871L5.51657 12.8641ZM5.89635 12.8544C5.87558 12.9212 5.84547 12.9541 5.82258 12.9717C5.79697 12.9914 5.76411 13.0042 5.72685 13.0067C5.68954 13.0091 5.6518 13.0007 5.61854 12.9818C5.588 12.9644 5.54939 12.9314 5.51657 12.8641L4.23885 13.4871C4.88539 14.813 6.8012 14.7331 7.25387 13.2761L5.89635 12.8544ZM6.83632 9.82895L5.89635 12.8544L7.25387 13.2761L8.19384 10.2507L6.83632 9.82895ZM8.0775 9.57784C8.04361 9.55446 8.0114 9.52945 7.98087 9.50296L7.04929 10.5767C7.11915 10.6373 7.19284 10.6945 7.27025 10.7479L8.0775 9.57784ZM14.0831 13.7211L8.0775 9.57784L7.27025 10.7479L13.2759 14.8912L14.0831 13.7211ZM15.464 13.4287C15.1644 13.9179 14.5553 14.0469 14.0831 13.7211L13.2759 14.8912C14.4193 15.6801 15.9508 15.3557 16.6763 14.1711L15.464 13.4287ZM15.1319 11.8606C15.6289 12.2035 15.7794 12.9137 15.464 13.4287L16.6763 14.1711C17.386 13.0123 17.0577 11.4621 15.9391 10.6905L15.1319 11.8606ZM9.12626 7.71726L15.1319 11.8606L15.9391 10.6905L9.93351 6.54717L9.12626 7.71726ZM9.11372 7.70873C9.11793 7.71155 9.12211 7.71439 9.12626 7.71726L9.9335 6.54717C9.92397 6.54059 9.91443 6.5341 9.90487 6.5277L9.11372 7.70873ZM11.3742 4.73617L9.06826 6.56084L9.95034 7.6756L12.2563 5.85093L11.3742 4.73617ZM11.2571 4.25352C11.3406 4.26598 11.4202 4.32654 11.4531 4.45295C11.486 4.57963 11.4467 4.6788 11.3742 4.73617L12.2563 5.85093C13.386 4.95706 12.9165 3.06393 11.4669 2.84756L11.2571 4.25352ZM0.937352 2.71317L11.2571 4.25352L11.4669 2.84756L1.14721 1.30721L0.937352 2.71317Z" fill="white" mask="url(#path-10-inside-1_76_149)"/>
<defs>
<linearGradient id="paint0_linear_76_149" x1="0.00634766" y1="8.3058" x2="16.3399" y2="8.3058" gradientUnits="userSpaceOnUse">
<stop stop-color="#F9A84B"/>
<stop offset="1" stop-color="#4F3CFF"/>
</linearGradient>
</defs>
</svg>
