<svg width="35" height="41" viewBox="0 0 35 41" fill="none" xmlns="http://www.w3.org/2000/svg">
<circle cx="27.0966" cy="7.89741" r="7.50254" stroke="white" stroke-width="0.789741"/>
<circle cx="23.5821" cy="5.64708" r="0.750254" fill="white" stroke="white" stroke-width="0.789741"/>
<circle cx="28.4786" cy="5.64708" r="0.750254" fill="white" stroke="white" stroke-width="0.789741"/>
<path d="M30.6051 10C30.6051 10.3792 30.3746 10.7708 29.9023 11.0857C29.4327 11.3987 28.7613 11.6051 28 11.6051C27.2387 11.6051 26.5673 11.3987 26.0977 11.0857C25.6254 10.7708 25.3949 10.3792 25.3949 10C25.3949 9.62082 25.6254 9.2292 26.0977 8.91434C26.5673 8.60131 27.2387 8.39487 28 8.39487C28.7613 8.39487 29.4327 8.60131 29.9023 8.91434C30.3746 9.2292 30.6051 9.62082 30.6051 10Z" stroke="white" stroke-width="0.789741"/>
<line x1="27.4916" y1="15.7949" x2="27.4915" y2="31.6687" stroke="white" stroke-width="0.789741"/>
<line x1="27.521" y1="31.4267" x2="21.8794" y2="39.8525" stroke="white" stroke-width="0.789741" stroke-linecap="round"/>
<line x1="27.1916" y1="19.8966" x2="17.9312" y2="14.7519" stroke="white" stroke-width="0.789741" stroke-linecap="round"/>
<line x1="32.8694" y1="39.8398" x2="27.7652" y2="31.8189" stroke="white" stroke-width="0.789741" stroke-linecap="round"/>
<line x1="34.4387" y1="28.3725" x2="27.5124" y2="19.8251" stroke="white" stroke-width="0.789741" stroke-linecap="round"/>
<mask id="path-10-inside-1_101_177" fill="white">
<path fill-rule="evenodd" clip-rule="evenodd" d="M1.03593 2.01019C0.299413 1.90025 -0.236161 2.70113 0.10542 3.40164L4.87136 13.1756C5.24855 13.9491 6.3157 13.8797 6.56876 13.0652L7.50874 10.0398C7.55893 10.0834 7.61188 10.1245 7.66753 10.1629L13.6732 14.3062C14.481 14.8635 15.5513 14.6368 16.0638 13.7999C16.5763 12.963 16.337 11.8328 15.5292 11.2755L9.52354 7.13221C9.51669 7.12749 9.50983 7.12283 9.50295 7.11822L11.8089 5.29355C12.4622 4.77661 12.1752 3.67287 11.3557 3.55054L1.03593 2.01019Z"/>
</mask>
<path fill-rule="evenodd" clip-rule="evenodd" d="M1.03593 2.01019C0.299413 1.90025 -0.236161 2.70113 0.10542 3.40164L4.87136 13.1756C5.24855 13.9491 6.3157 13.8797 6.56876 13.0652L7.50874 10.0398C7.55893 10.0834 7.61188 10.1245 7.66753 10.1629L13.6732 14.3062C14.481 14.8635 15.5513 14.6368 16.0638 13.7999C16.5763 12.963 16.337 11.8328 15.5292 11.2755L9.52354 7.13221C9.51669 7.12749 9.50983 7.12283 9.50295 7.11822L11.8089 5.29355C12.4622 4.77661 12.1752 3.67287 11.3557 3.55054L1.03593 2.01019Z" fill="url(#paint0_linear_101_177)"/>
<path d="M0.10542 3.40164L-0.533442 3.71316L0.10542 3.40164ZM1.03593 2.01019L0.931005 2.71317L1.03593 2.01019ZM4.87136 13.1756L5.51022 12.8641L5.51022 12.8641L4.87136 13.1756ZM6.56876 13.0652L7.24752 13.2761L6.56876 13.0652ZM7.50874 10.0398L7.97452 9.50296L7.15276 8.79002L6.82998 9.82895L7.50874 10.0398ZM7.66753 10.1629L8.07115 9.57784L8.07115 9.57784L7.66753 10.1629ZM13.6732 14.3062L13.2695 14.8912L13.2695 14.8912L13.6732 14.3062ZM16.0638 13.7999L15.4577 13.4287L15.4577 13.4287L16.0638 13.7999ZM15.5292 11.2755L15.1256 11.8606L15.1256 11.8606L15.5292 11.2755ZM9.52354 7.13221L9.92716 6.54717L9.92716 6.54716L9.52354 7.13221ZM9.50295 7.11822L9.06191 6.56084L8.29711 7.16601L9.1074 7.70875L9.50295 7.11822ZM11.8089 5.29355L11.3679 4.73617L11.3679 4.73617L11.8089 5.29355ZM11.3557 3.55054L11.4606 2.84756L11.4606 2.84756L11.3557 3.55054ZM0.744282 3.09012C0.689823 2.97843 0.707437 2.87154 0.757218 2.7971C0.804931 2.72575 0.864178 2.70319 0.931005 2.71317L1.14086 1.30721C-0.247479 1.09998 -1.08684 2.57826 -0.533442 3.71316L0.744282 3.09012ZM5.51022 12.8641L0.744282 3.09012L-0.533442 3.71316L4.2325 13.4871L5.51022 12.8641ZM5.89 12.8544C5.86923 12.9212 5.83912 12.9541 5.81624 12.9717C5.79063 12.9914 5.75777 13.0042 5.7205 13.0067C5.68319 13.0091 5.64545 13.0007 5.61219 12.9818C5.58166 12.9644 5.54304 12.9314 5.51022 12.8641L4.2325 13.4871C4.87904 14.813 6.79485 14.7331 7.24752 13.2761L5.89 12.8544ZM6.82998 9.82895L5.89 12.8544L7.24752 13.2761L8.1875 10.2507L6.82998 9.82895ZM8.07115 9.57784C8.03727 9.55447 8.00506 9.52945 7.97452 9.50296L7.04295 10.5767C7.1128 10.6373 7.18649 10.6945 7.26391 10.7479L8.07115 9.57784ZM14.0768 13.7211L8.07115 9.57784L7.26391 10.7479L13.2695 14.8912L14.0768 13.7211ZM15.4577 13.4287C15.1581 13.9179 14.549 14.0469 14.0768 13.7211L13.2695 14.8912C14.4129 15.6801 15.9445 15.3557 16.6699 14.1711L15.4577 13.4287ZM15.1256 11.8606C15.6226 12.2035 15.773 12.9137 15.4577 13.4287L16.6699 14.1711C17.3796 13.0123 17.0513 11.4621 15.9328 10.6905L15.1256 11.8606ZM9.11991 7.71726L15.1256 11.8606L15.9328 10.6905L9.92716 6.54717L9.11991 7.71726ZM9.1074 7.70875C9.11156 7.71154 9.11573 7.71437 9.11991 7.71726L9.92716 6.54716C9.91765 6.54061 9.9081 6.53411 9.8985 6.52768L9.1074 7.70875ZM11.3679 4.73617L9.06191 6.56084L9.94399 7.6756L12.25 5.85093L11.3679 4.73617ZM11.2507 4.25352C11.3342 4.26598 11.4138 4.32654 11.4467 4.45295C11.4797 4.57963 11.4404 4.6788 11.3679 4.73617L12.25 5.85093C13.3796 4.95706 12.9102 3.06393 11.4606 2.84756L11.2507 4.25352ZM0.931005 2.71317L11.2507 4.25352L11.4606 2.84756L1.14086 1.30721L0.931005 2.71317Z" fill="white" mask="url(#path-10-inside-1_101_177)"/>
<defs>
<linearGradient id="paint0_linear_101_177" x1="0" y1="8.3058" x2="16.3336" y2="8.3058" gradientUnits="userSpaceOnUse">
<stop stop-color="#F9A84B"/>
<stop offset="1" stop-color="#4F3CFF"/>
</linearGradient>
</defs>
</svg>
